<svg xmlns="http://www.w3.org/2000/svg" xmlns:xlink="http://www.w3.org/1999/xlink" viewBox="0 0 2866 52"><defs><style>.cls-1{fill:none;}.cls-2{isolation:isolate;}.cls-3{clip-path:url(#clip-path);}.cls-4,.cls-7{fill:#eda95e;}.cls-5{fill:#d3844f;}.cls-6,.cls-7{opacity:0.4;mix-blend-mode:screen;}.cls-8{clip-path:url(#clip-path-2);}.cls-9{clip-path:url(#clip-path-3);}.cls-10{clip-path:url(#clip-path-4);}.cls-11{clip-path:url(#clip-path-5);}</style><clipPath id="clip-path"><rect class="cls-1" width="787" height="302"/></clipPath><clipPath id="clip-path-2"><rect class="cls-1" x="779" width="787" height="302"/></clipPath><clipPath id="clip-path-3"><rect class="cls-1" x="1042.39" width="787" height="302"/></clipPath><clipPath id="clip-path-4"><rect class="cls-1" x="1532" width="787" height="302"/></clipPath><clipPath id="clip-path-5"><rect class="cls-1" x="2319" width="787" height="302"/></clipPath></defs><g class="cls-2"><g id="Layer_1" data-name="Layer 1"><g class="cls-3"><rect class="cls-4" x="-83" y="48" width="918" height="24"/><path class="cls-5" d="M806.76,39.12c-12.09,1.11-16,2.39-28.74-.32-7.51-1.59-16.33.16-29.06-.47-7.18-.37-12.41-1.44-27.43-2.39s-19.6,1.27-31,3.66S642.17,42,634,42s-14.69,2.71-22.86,2.71-22.2-.8-34.29.79-30,2.39-42.45,1.43-34.61-.47-53.22-2.07-24.5-1.59-42.46-1-30.69.16-46-.16S360,42.31,346.64,41.51s-13.71-2.87-32-3.34-25.81-3-35.93-5.58-24.49-4-29.71-6.05-13.72-5.73-19.92-6.05-11.76-.16-18.61-1.91S190.55,13.32,181.74,15s-19.1.72-37.72,7.41C129,27.81,35.39,36,.18,39V51.14A73.54,73.54,0,0,0,11.93,50c6.86-1.43,9.15-.16,15.68-.32s8.16-.64,15,0,30.37,1,46-.16,35.93,0,46.37,0,42.78.64,64.33.64,87.68.48,137.64,1,73,.48,138.63.72,104.82,1,128.33,1.43,60.24,0,85.71-.23c24.31-.23,79.82-2.41,131.66-1.78v-12C816.17,37.79,815.28,38.33,806.76,39.12Z"/><g class="cls-6"><path class="cls-5" d="M147.78,25.27c21.55-5.1,26.77-8.6,13.06.31s0,5.74,9.14-.95,18.29-8.28,31.35.64,10.45,4.77,6.53-1,.65-5.1,21.55,2.23,21.56,5.73,11.11.95,6.53.32,31.35,6.69,47.67,9.24,25.47,2.87c-.62-.18-1.27-.37-1.92-.58-6.28-1.06-11.09-2.47-16.7-3.88-10.12-2.55-24.49-4-29.71-6.05s-13.72-5.73-19.92-6.05-11.76-.16-18.61-1.91S190.55,13.32,181.74,15c-8,1.52-17.18.87-32.68,5.71a14.71,14.71,0,0,1-1.94.74C135.37,25.27,126.22,30.36,147.78,25.27Z"/></g><path class="cls-4" d="M732,50.53c-13.71-.32-16-1.43-23.83-3.18S697,47,686.26,49.1s-13.07,3-24.49,2.55S632.38,52.92,620,51s-27.76-.16-33.31.64a79.33,79.33,0,0,1-20.25-.32c-6.2-1-15.67-1-24.81-1.44s-13.39-.16-21.56,0-15.67,1.12-21.88.48-5.55-.48-11.75-.32-13.71.64-21.55-.16-13.06-.63-21.23-.47-15,1.43-22.2.15-23.84-.47-29.72-1.9-7.18-1.6-15.67-1-9.15,1.11-18.29.8-18.28.79-25.8-.64-7.83-1.59-20.9.32c-10.7,1.56-30.37,1.11-42.45,1s-26.77-4.93-33.63-7-15.35-3.35-26.13-5.1-17-2.39-26.12-.16-9.8,3-14.7,2.71-18,.32-24.81.32-2.62-4-14.37-1.76C111.56,39.64,23.27,48.84.18,51.23v.5a73.54,73.54,0,0,0,11.75-1.2c6.86-1.43,9.15-.16,15.68-.32s8.16-.64,15,0,30.37,1,46-.16,35.93,0,46.37,0,42.78.64,64.33.64,87.68.48,137.64,1,73,.47,138.63.71,104.82,1,128.33,1.44,60.24,0,85.71-.24c23.87-.23,77.81-2.33,128.84-1.81C797.56,49.78,743.82,50.81,732,50.53Z"/><path class="cls-1" d="M235,40.55c3.27,1,8.32,2.59,14,4A120,120,0,0,0,235,40.55Z"/><path class="cls-4" d="M231.28,39.56c1.11.33,2.33.67,3.69,1C233.79,40.2,232.55,39.87,231.28,39.56Z"/><path class="cls-7" d="M124.92,42.41c-20.25,7.32-3.92,3.18,11.75-.64s-3.91,5.73,11.11,1.91,19.59-4.46,24.81,2.23,11.76-15.61,17-6,18.28-4.14,41.8,2.55c16.58,4.72,23.4,5,17.62,2.74-5.71-1.42-10.76-3-14-4-1.36-.33-2.58-.66-3.69-1-6.17-1.52-13.51-2.65-22.44-4.1-10.77-1.75-17-2.39-26.12-.16s-9.8,3-14.7,2.71-18,.32-24.81.32-2.62-4-14.37-1.76c-.93.14-2.07.29-3.38.46C130.5,38.38,132.08,39.82,124.92,42.41Z"/></g><g class="cls-8"><rect class="cls-4" x="696" y="48" width="918" height="24"/><path class="cls-5" d="M1585.76,39.12c-12.09,1.11-16,2.39-28.74-.32-7.51-1.59-16.33.16-29.06-.47-7.18-.37-12.41-1.44-27.43-2.39s-19.6,1.27-31,3.66S1421.17,42,1413,42s-14.69,2.71-22.86,2.71-22.2-.8-34.29.79-30,2.39-42.45,1.43-34.61-.47-53.22-2.07-24.5-1.59-42.46-1-30.69.16-46-.16-32.66-1.43-46-2.23-13.71-2.87-32-3.34-25.81-3-35.93-5.58-24.49-4-29.71-6.05-13.72-5.73-19.92-6.05-11.76-.16-18.61-1.91S969.55,13.32,960.74,15s-19.1.72-37.72,7.41C908,27.81,814.39,36,779.18,39V51.14A73.54,73.54,0,0,0,790.93,50c6.86-1.43,9.15-.16,15.68-.32s8.16-.64,15,0,30.37,1,46-.16,35.93,0,46.37,0,42.78.64,64.33.64,87.68.48,137.64,1,73,.48,138.63.72,104.82,1,128.33,1.43,60.24,0,85.71-.23c24.31-.23,79.82-2.41,131.66-1.78v-12C1595.17,37.79,1594.28,38.33,1585.76,39.12Z"/><g class="cls-6"><path class="cls-5" d="M926.78,25.27c21.55-5.1,26.77-8.6,13.06.31s0,5.74,9.14-.95,18.29-8.28,31.35.64,10.45,4.77,6.53-1,.65-5.1,21.55,2.23,21.56,5.73,11.11.95,6.53.32,31.35,6.69,47.67,9.24,25.47,2.87c-.62-.18-1.27-.37-1.92-.58-6.28-1.06-11.09-2.47-16.7-3.88-10.12-2.55-24.49-4-29.71-6.05s-13.72-5.73-19.92-6.05-11.76-.16-18.61-1.91S969.55,13.32,960.74,15c-8,1.52-17.18.87-32.68,5.71a14.71,14.71,0,0,1-1.94.74C914.37,25.27,905.22,30.36,926.78,25.27Z"/></g><path class="cls-4" d="M1511,50.53c-13.71-.32-16-1.43-23.83-3.18S1476,47,1465.26,49.1s-13.07,3-24.49,2.55-29.39,1.27-41.8-.64-27.76-.16-33.31.64a79.33,79.33,0,0,1-20.25-.32c-6.2-1-15.67-1-24.81-1.44s-13.39-.16-21.56,0-15.67,1.12-21.88.48-5.55-.48-11.75-.32-13.71.64-21.55-.16-13.06-.63-21.23-.47-15,1.43-22.2.15-23.84-.47-29.72-1.9-7.18-1.6-15.67-1-9.15,1.11-18.29.8-18.28.79-25.8-.64-7.83-1.59-20.9.32c-10.7,1.56-30.37,1.11-42.45,1s-26.77-4.93-33.63-7-15.35-3.35-26.13-5.1-17-2.39-26.12-.16-9.8,3-14.7,2.71-18,.32-24.81.32-2.62-4-14.37-1.76c-17.28,2.49-105.57,11.69-128.66,14.08v.5a73.54,73.54,0,0,0,11.75-1.2c6.86-1.43,9.15-.16,15.68-.32s8.16-.64,15,0,30.37,1,46-.16,35.93,0,46.37,0,42.78.64,64.33.64,87.68.48,137.64,1,73,.47,138.63.71,104.82,1,128.33,1.44,60.24,0,85.71-.24c23.87-.23,77.81-2.33,128.84-1.81C1576.56,49.78,1522.82,50.81,1511,50.53Z"/><path class="cls-1" d="M1014,40.55c3.27,1,8.32,2.59,14,4A120,120,0,0,0,1014,40.55Z"/><path class="cls-4" d="M1010.28,39.56c1.11.33,2.33.67,3.69,1C1012.79,40.2,1011.55,39.87,1010.28,39.56Z"/><path class="cls-7" d="M903.92,42.41c-20.25,7.32-3.92,3.18,11.75-.64s-3.91,5.73,11.11,1.91,19.59-4.46,24.81,2.23,11.76-15.61,17-6,18.28-4.14,41.8,2.55c16.58,4.72,23.4,5,17.62,2.74-5.71-1.42-10.76-3-14-4-1.36-.33-2.58-.66-3.69-1-6.17-1.52-13.51-2.65-22.44-4.1-10.77-1.75-17-2.39-26.12-.16s-9.8,3-14.7,2.71-18,.32-24.81.32-2.62-4-14.37-1.76c-.93.14-2.07.29-3.38.46C909.5,38.38,911.08,39.82,903.92,42.41Z"/></g><g class="cls-9"><rect class="cls-4" x="959.39" y="48" width="918" height="24"/><path class="cls-5" d="M1849.15,39.12c-12.09,1.11-16,2.39-28.74-.32-7.51-1.59-16.33.16-29.06-.47-7.18-.37-12.41-1.44-27.43-2.39s-19.6,1.27-31,3.66S1684.56,42,1676.4,42s-14.69,2.71-22.86,2.71-22.21-.8-34.29.79-30,2.39-42.45,1.43-34.61-.47-53.22-2.07-24.5-1.59-42.46-1-30.69.16-46-.16-32.66-1.43-46-2.23-13.71-2.87-32-3.34-25.81-3-35.93-5.58-24.49-4-29.71-6.05-13.72-5.73-19.92-6.05-11.76-.16-18.61-1.91-19.93-5.26-28.74-3.59-19.1.72-37.72,7.41C1171.35,27.81,1077.78,36,1042.57,39V51.14A73.66,73.66,0,0,0,1054.32,50c6.86-1.43,9.14-.16,15.68-.32s8.16-.64,15,0,30.37,1,46-.16,35.93,0,46.37,0,42.78.64,64.33.64,87.68.48,137.64,1,73,.48,138.63.72,104.82,1,128.33,1.43,60.24,0,85.71-.23c24.31-.23,79.82-2.41,131.66-1.78v-12C1858.56,37.79,1857.67,38.33,1849.15,39.12Z"/><g class="cls-6"><path class="cls-5" d="M1190.17,25.27c21.55-5.1,26.77-8.6,13.06.31s0,5.74,9.14-.95,18.29-8.28,31.35.64,10.45,4.77,6.53-1,.65-5.1,21.55,2.23,21.56,5.73,11.11.95,6.53.32,31.34,6.69,47.68,9.24,25.48,2.87c-.62-.18-1.27-.37-1.92-.58-6.28-1.06-11.09-2.47-16.7-3.88-10.12-2.55-24.49-4-29.71-6.05s-13.72-5.73-19.92-6.05-11.76-.16-18.61-1.91-19.93-5.26-28.74-3.59c-8,1.52-17.18.87-32.68,5.71a14.71,14.71,0,0,1-1.94.74C1177.76,25.27,1168.61,30.36,1190.17,25.27Z"/></g><path class="cls-4" d="M1774.36,50.53c-13.71-.32-16-1.43-23.83-3.18s-11.11-.32-21.88,1.75-13.07,3-24.49,2.55-29.39,1.27-41.8-.64-27.76-.16-33.31.64a79.33,79.33,0,0,1-20.25-.32c-6.2-1-15.67-1-24.81-1.44s-13.39-.16-21.56,0-15.67,1.12-21.88.48-5.55-.48-11.75-.32-13.71.64-21.55-.16-13.06-.63-21.23-.47-15,1.43-22.2.15-23.84-.47-29.72-1.9-7.19-1.6-15.67-1-9.15,1.11-18.29.8-18.28.79-25.8-.64-7.83-1.59-20.9.32c-10.7,1.56-30.37,1.11-42.45,1s-26.78-4.93-33.63-7S1262,37.79,1251.23,36s-17-2.39-26.12-.16-9.8,3-14.7,2.71-18,.32-24.81.32-2.62-4-14.37-1.76c-17.28,2.49-105.57,11.69-128.66,14.08v.5a73.66,73.66,0,0,0,11.75-1.2c6.86-1.43,9.14-.16,15.68-.32s8.16-.64,15,0,30.37,1,46-.16,35.93,0,46.37,0,42.78.64,64.33.64,87.68.48,137.64,1,73,.47,138.63.71,104.82,1,128.33,1.44,60.24,0,85.71-.24c23.87-.23,77.81-2.33,128.84-1.81C1840,49.78,1786.21,50.81,1774.36,50.53Z"/><path class="cls-1" d="M1277.36,40.55c3.27,1,8.32,2.59,14,4A120,120,0,0,0,1277.36,40.55Z"/><path class="cls-4" d="M1273.67,39.56c1.11.33,2.33.67,3.69,1C1276.18,40.2,1274.94,39.87,1273.67,39.56Z"/><path class="cls-7" d="M1167.31,42.41c-20.25,7.32-3.92,3.18,11.75-.64s-3.91,5.73,11.11,1.91,19.59-4.46,24.81,2.23,11.76-15.61,17-6,18.28-4.14,41.8,2.55c16.58,4.72,23.39,5,17.62,2.74-5.71-1.42-10.76-3-14-4-1.36-.33-2.58-.66-3.69-1-6.17-1.52-13.51-2.65-22.44-4.1-10.77-1.75-17-2.39-26.12-.16s-9.8,3-14.7,2.71-18,.32-24.81.32-2.62-4-14.37-1.76c-.93.14-2.07.29-3.38.46C1172.89,38.38,1174.47,39.82,1167.31,42.41Z"/></g><g class="cls-10"><rect class="cls-4" x="1449" y="48" width="918" height="24"/><path class="cls-5" d="M2338.76,39.12c-12.09,1.11-16,2.39-28.74-.32-7.51-1.59-16.33.16-29.06-.47-7.18-.37-12.41-1.44-27.43-2.39s-19.6,1.27-31,3.66S2174.17,42,2166,42s-14.69,2.71-22.86,2.71-22.2-.8-34.29.79-30,2.39-42.45,1.43-34.61-.47-53.22-2.07-24.5-1.59-42.46-1-30.69.16-46-.16-32.66-1.43-46-2.23-13.71-2.87-32-3.34-25.81-3-35.93-5.58-24.49-4-29.71-6.05-13.72-5.73-19.92-6.05-11.76-.16-18.61-1.91-19.93-5.26-28.74-3.59-19.1.72-37.72,7.41C1661,27.81,1567.39,36,1532.18,39V51.14A73.54,73.54,0,0,0,1543.93,50c6.86-1.43,9.15-.16,15.68-.32s8.16-.64,15,0,30.37,1,46-.16,35.93,0,46.37,0,42.78.64,64.33.64,87.68.48,137.64,1,73,.48,138.63.72,104.82,1,128.33,1.43,60.24,0,85.71-.23c24.31-.23,79.82-2.41,131.66-1.78v-12C2348.17,37.79,2347.28,38.33,2338.76,39.12Z"/><g class="cls-6"><path class="cls-5" d="M1679.78,25.27c21.55-5.1,26.77-8.6,13.06.31s0,5.74,9.14-.95,18.29-8.28,31.35.64,10.45,4.77,6.53-1,.65-5.1,21.55,2.23,21.56,5.73,11.11.95,6.53.32,31.35,6.69,47.67,9.24,25.47,2.87c-.62-.18-1.27-.37-1.92-.58-6.28-1.06-11.09-2.47-16.7-3.88-10.12-2.55-24.49-4-29.71-6.05s-13.72-5.73-19.92-6.05-11.76-.16-18.61-1.91-19.93-5.26-28.74-3.59c-8,1.52-17.18.87-32.68,5.71a14.71,14.71,0,0,1-1.94.74C1667.37,25.27,1658.22,30.36,1679.78,25.27Z"/></g><path class="cls-4" d="M2264,50.53c-13.71-.32-16-1.43-23.83-3.18S2229,47,2218.26,49.1s-13.07,3-24.49,2.55-29.39,1.27-41.8-.64-27.76-.16-33.31.64a79.33,79.33,0,0,1-20.25-.32c-6.2-1-15.67-1-24.81-1.44s-13.39-.16-21.56,0-15.67,1.12-21.88.48-5.55-.48-11.75-.32-13.71.64-21.55-.16-13.06-.63-21.23-.47-15,1.43-22.2.15-23.84-.47-29.72-1.9-7.18-1.6-15.67-1-9.15,1.11-18.29.8-18.28.79-25.8-.64-7.83-1.59-20.9.32c-10.7,1.56-30.37,1.11-42.45,1s-26.77-4.93-33.63-7-15.35-3.35-26.13-5.1-17-2.39-26.12-.16-9.8,3-14.7,2.71-18,.32-24.81.32-2.62-4-14.37-1.76c-17.28,2.49-105.57,11.69-128.66,14.08v.5a73.54,73.54,0,0,0,11.75-1.2c6.86-1.43,9.15-.16,15.68-.32s8.16-.64,15,0,30.37,1,46-.16,35.93,0,46.37,0,42.78.64,64.33.64,87.68.48,137.64,1,73,.47,138.63.71,104.82,1,128.33,1.44,60.24,0,85.71-.24c23.87-.23,77.81-2.33,128.84-1.81C2329.56,49.78,2275.82,50.81,2264,50.53Z"/><path class="cls-1" d="M1767,40.55c3.27,1,8.32,2.59,14,4A120,120,0,0,0,1767,40.55Z"/><path class="cls-4" d="M1763.28,39.56c1.11.33,2.33.67,3.69,1C1765.79,40.2,1764.55,39.87,1763.28,39.56Z"/><path class="cls-7" d="M1656.92,42.41c-20.25,7.32-3.92,3.18,11.75-.64s-3.91,5.73,11.11,1.91,19.59-4.46,24.81,2.23,11.76-15.61,17-6,18.28-4.14,41.8,2.55c16.58,4.72,23.4,5,17.62,2.74-5.71-1.42-10.76-3-14-4-1.36-.33-2.58-.66-3.69-1-6.17-1.52-13.51-2.65-22.44-4.1-10.77-1.75-17-2.39-26.12-.16s-9.8,3-14.7,2.71-18,.32-24.81.32-2.62-4-14.37-1.76c-.93.14-2.07.29-3.38.46C1662.5,38.38,1664.08,39.82,1656.92,42.41Z"/></g><g class="cls-11"><rect class="cls-4" x="2236" y="48" width="918" height="24"/><path class="cls-5" d="M3125.76,39.12c-12.09,1.11-16,2.39-28.74-.32-7.51-1.59-16.33.16-29.06-.47-7.18-.37-12.41-1.44-27.43-2.39s-19.6,1.27-31,3.66S2961.17,42,2953,42s-14.69,2.71-22.86,2.71-22.2-.8-34.29.79-30,2.39-42.45,1.43-34.61-.47-53.22-2.07-24.5-1.59-42.46-1-30.69.16-46-.16-32.66-1.43-46.05-2.23-13.71-2.87-32-3.34-25.81-3-35.93-5.58-24.49-4-29.71-6.05-13.72-5.73-19.92-6.05-11.76-.16-18.61-1.91-19.93-5.26-28.74-3.59-19.1.72-37.72,7.41C2448,27.81,2354.39,36,2319.18,39V51.14A73.54,73.54,0,0,0,2330.93,50c6.86-1.43,9.15-.16,15.68-.32s8.16-.64,15,0,30.37,1,46-.16,35.93,0,46.37,0,42.78.64,64.33.64,87.68.48,137.64,1,73,.48,138.63.72,104.82,1,128.33,1.43,60.24,0,85.71-.23c24.31-.23,79.82-2.41,131.66-1.78v-12C3135.17,37.79,3134.28,38.33,3125.76,39.12Z"/><g class="cls-6"><path class="cls-5" d="M2466.78,25.27c21.55-5.1,26.77-8.6,13.06.31s0,5.74,9.14-.95,18.29-8.28,31.35.64,10.45,4.77,6.53-1,.65-5.1,21.55,2.23,21.56,5.73,11.11.95,6.53.32,31.35,6.69,47.67,9.24,25.47,2.87c-.62-.18-1.27-.37-1.92-.58-6.28-1.06-11.09-2.47-16.7-3.88-10.12-2.55-24.49-4-29.71-6.05s-13.72-5.73-19.92-6.05-11.76-.16-18.61-1.91-19.93-5.26-28.74-3.59c-8,1.52-17.18.87-32.68,5.71a14.71,14.71,0,0,1-1.94.74C2454.37,25.27,2445.22,30.36,2466.78,25.27Z"/></g><path class="cls-4" d="M3051,50.53c-13.71-.32-16-1.43-23.83-3.18S3016,47,3005.26,49.1s-13.07,3-24.49,2.55-29.39,1.27-41.8-.64-27.76-.16-33.31.64a79.33,79.33,0,0,1-20.25-.32c-6.2-1-15.67-1-24.81-1.44s-13.39-.16-21.56,0-15.67,1.12-21.88.48-5.55-.48-11.75-.32-13.71.64-21.55-.16-13.06-.63-21.23-.47-15,1.43-22.2.15-23.84-.47-29.72-1.9-7.18-1.6-15.67-1-9.15,1.11-18.29.8-18.28.79-25.8-.64-7.83-1.59-20.9.32c-10.7,1.56-30.37,1.11-42.45,1s-26.77-4.93-33.63-7-15.35-3.35-26.13-5.1-17-2.39-26.12-.16-9.8,3-14.7,2.71-18,.32-24.81.32-2.62-4-14.37-1.76c-17.28,2.49-105.57,11.69-128.66,14.08v.5a73.54,73.54,0,0,0,11.75-1.2c6.86-1.43,9.15-.16,15.68-.32s8.16-.64,15,0,30.37,1,46-.16,35.93,0,46.37,0,42.78.64,64.33.64,87.68.48,137.64,1,73,.47,138.63.71,104.82,1,128.33,1.44,60.24,0,85.71-.24c23.87-.23,77.81-2.33,128.84-1.81C3116.56,49.78,3062.82,50.81,3051,50.53Z"/><path class="cls-1" d="M2554,40.55c3.27,1,8.32,2.59,14,4A120,120,0,0,0,2554,40.55Z"/><path class="cls-4" d="M2550.28,39.56c1.11.33,2.33.67,3.69,1C2552.79,40.2,2551.55,39.87,2550.28,39.56Z"/><path class="cls-7" d="M2443.92,42.41c-20.25,7.32-3.92,3.18,11.75-.64s-3.91,5.73,11.11,1.91,19.59-4.46,24.81,2.23,11.76-15.61,17-6,18.28-4.14,41.8,2.55c16.58,4.72,23.4,5,17.62,2.74-5.71-1.42-10.76-3-14-4-1.36-.33-2.58-.66-3.69-1-6.17-1.52-13.51-2.65-22.44-4.1-10.77-1.75-17-2.39-26.12-.16s-9.8,3-14.7,2.71-18,.32-24.81.32-2.62-4-14.37-1.76c-.93.14-2.07.29-3.38.46C2449.5,38.38,2451.08,39.82,2443.92,42.41Z"/></g></g></g></svg>